<?xml version="1.0" encoding="utf-8"?>
<!-- Generator: Adobe Illustrator 25.2.0, SVG Export Plug-In . SVG Version: 6.00 Build 0)  -->
<svg version="1.1" id="Layer_1" xmlns="http://www.w3.org/2000/svg" xmlns:xlink="http://www.w3.org/1999/xlink" x="0px" y="0px"
	 viewBox="0 0 381.3 292" style="enable-background:new 0 0 381.3 292;" xml:space="preserve">
<style type="text/css">
	.st0{fill:#3A5364;}
	.st1{opacity:0.8;fill:#FFFFFF;enable-background:new    ;}
	.st2{fill:#FFFFFF;stroke:#263238;stroke-width:0.75;stroke-linecap:round;stroke-linejoin:round;}
	.st3{fill:#263238;stroke:#263238;stroke-width:0.75;stroke-linecap:round;stroke-linejoin:round;}
	.st4{fill:#263238;}
	.st5{fill:#3A5364;stroke:#263238;stroke-width:0.75;stroke-linecap:round;stroke-linejoin:round;}
	.st6{fill:#FFFFFF;}
	.st7{fill:none;stroke:#263238;stroke-width:0.75;stroke-linecap:round;stroke-linejoin:round;}
	.st8{fill:none;stroke:#263238;stroke-linecap:round;stroke-linejoin:round;}
	.st9{fill:#263238;stroke:#263238;stroke-linecap:round;stroke-linejoin:round;}
	.st10{fill:#FFFFFF;stroke:#263238;stroke-linecap:round;stroke-linejoin:round;}
	.st11{clip-path:url(#SVGID_2_);}
	.st12{clip-path:url(#SVGID_4_);}
	.st13{opacity:0.5;fill:#FFFFFF;enable-background:new    ;}
	.st14{clip-path:url(#SVGID_6_);}
	.st15{clip-path:url(#SVGID_8_);}
	.st16{fill:none;stroke:#FFFFFF;stroke-linecap:round;stroke-miterlimit:10;}
	.st17{clip-path:url(#SVGID_10_);}
	
		.st18{opacity:0.5;fill:#FFFFFF;stroke:#263238;stroke-width:0.75;stroke-linecap:round;stroke-linejoin:round;enable-background:new    ;}
	.st19{clip-path:url(#SVGID_12_);}
	.st20{clip-path:url(#SVGID_14_);}
</style>
<g id="freepik--background-simple--inject-4">
	<path class="st0" d="M374.2,146.5c-3.4-27-11.9-53.1-22-71.8c-24.5-44.9-92.6-74.9-144-67.2c-43.8,6.6-64.9,46.6-104.4,60.5
		c-36.3,12.8-69.1,22.6-86.2,56.3C-18.7,195.4,70,273.2,146.1,267.1c24-1.9,45.4-11.1,70.1-6.8c50,8.8,66.6,18.2,110.8,0.7
		C370.4,243.6,380.1,193.7,374.2,146.5z"/>
	<path class="st1" d="M374.2,146.5c-3.4-27-11.9-53.1-22-71.8c-24.5-44.9-92.6-74.9-144-67.2c-43.8,6.6-64.9,46.6-104.4,60.5
		c-36.3,12.8-69.1,22.6-86.2,56.3C-18.7,195.4,70,273.2,146.1,267.1c24-1.9,45.4-11.1,70.1-6.8c50,8.8,66.6,18.2,110.8,0.7
		C370.4,243.6,380.1,193.7,374.2,146.5z"/>
</g>
<g id="freepik--Device--inject-4">
	<polyline class="st2" points="199.2,282.4 156.6,186.9 259.9,186.9 387.4,271 	"/>
	<polygon class="st3" points="188.7,278.7 156.6,193.3 156.6,186.9 202,286.9 	"/>
	<polygon class="st2" points="215.7,190.9 259.6,242.4 206.3,254.8 176,197.2 	"/>
	<polygon class="st3" points="206.3,254.8 206.3,256.4 258.7,245.8 259.6,242.4 	"/>
	<polygon class="st4" points="214,209.4 216.3,212.7 222,211.2 219.6,208 	"/>
	<polygon class="st4" points="235.7,229.7 232.9,226 226.4,227.8 229,231.6 	"/>
	<polygon class="st4" points="209.3,202.5 211,205 216.4,203.6 214.7,201.3 	"/>
	<polygon class="st4" points="219.7,217.8 222.8,222.4 229.1,220.8 225.7,216.2 	"/>
	<polygon class="st4" points="236,220 230.6,221.3 233.3,225 238.8,223.5 	"/>
	<polygon class="st4" points="223.3,223.2 225.9,227 232.4,225.3 229.7,221.6 	"/>
	<polygon class="st4" points="203.3,203.9 204.9,206.5 210.1,205.2 208.4,202.7 	"/>
	<polygon class="st4" points="216.8,213.5 219.2,217 225.1,215.4 222.6,212 	"/>
	<polygon class="st4" points="211.6,205.8 213.5,208.6 219,207.2 217,204.4 	"/>
	<polygon class="st4" points="199.9,212.2 198.2,209.2 192.1,210.7 193.8,213.8 	"/>
	<polygon class="st4" points="191.1,219.5 195.3,218.4 193.4,214.9 189.2,216 	"/>
	<polygon class="st4" points="201.4,200.9 202.8,203 207.8,201.9 206.5,199.9 	"/>
	<polygon class="st4" points="197.8,208.3 196.2,205.4 189.9,206.8 191.7,209.9 	"/>
	<polygon class="st4" points="195.4,202.1 196.6,204.4 201.8,203.2 200.5,201.1 	"/>
	<polygon class="st4" points="186.7,211.2 190.7,210.1 189,207 184.9,207.9 	"/>
	<polygon class="st4" points="188.2,203.6 189.5,206 195.7,204.6 194.4,202.3 	"/>
	<polygon class="st4" points="207.7,211.1 209.8,214.5 215.3,213 213.1,209.7 	"/>
	<polygon class="st4" points="221.9,222.6 218.8,218.1 213.1,219.7 215.8,224.2 	"/>
	<polygon class="st4" points="197.1,205.2 198.7,208.1 204,206.8 202.3,204.1 	"/>
	<polygon class="st4" points="198.3,223.7 194,224.9 196.2,229.2 200.7,228 	"/>
	<polygon class="st4" points="210.3,215.3 212.6,218.9 218.3,217.3 215.9,213.8 	"/>
	<polygon class="st4" points="206.3,210.5 204.5,207.6 199.2,208.9 200.8,212 	"/>
	<polygon class="st4" points="216.3,241.9 210.2,243.4 212.4,247.4 218.6,245.9 	"/>
	<polygon class="st4" points="206.9,198.9 212.1,197.8 209.3,194 204.2,194.8 	"/>
	<polygon class="st4" points="194,201.5 191.5,196.9 185.1,198 187.7,202.8 	"/>
	<polygon class="st4" points="202.3,216.5 200.4,213 194.3,214.6 196.2,218.1 	"/>
	<polygon class="st4" points="217.9,229.2 215.4,225.2 209.1,226.8 211.3,231 	"/>
	<polygon class="st4" points="214.9,224.4 212.1,219.9 206.2,221.6 208.6,226 	"/>
	<polygon class="st4" points="225,227.3 222.4,223.4 216.3,225 218.8,228.9 	"/>
	<polygon class="st4" points="208.9,214.7 206.8,211.3 201.3,212.8 203.2,216.3 	"/>
	<polygon class="st4" points="205.4,207.3 207.2,210.3 212.6,208.9 210.6,206 	"/>
	<polygon class="st4" points="211.6,219.1 209.4,215.5 203.7,217.1 205.7,220.8 	"/>
	<polygon class="st4" points="228.1,231.8 225.5,228.1 219.3,229.7 221.7,233.6 	"/>
	<polygon class="st4" points="224,239 221.3,234.6 214.4,236.5 216.8,240.8 	"/>
	<polygon class="st4" points="203.5,233.1 201.1,228.9 196.7,230 198.9,234.3 	"/>
	<polygon class="st4" points="195.8,219.2 191.6,220.4 193.5,224.1 197.8,222.9 	"/>
	<polygon class="st4" points="215.9,241 213.5,236.7 207.4,238.4 209.8,242.6 	"/>
	<polygon class="st4" points="204.8,221 202.8,217.3 196.7,219 198.7,222.7 	"/>
	<polygon class="st4" points="207.4,199.7 208.8,201.7 214.1,200.5 212.7,198.6 	"/>
	<polygon class="st4" points="184.5,207.1 188.5,206.2 187.2,203.8 183.2,204.6 	"/>
	<polygon class="st4" points="200.9,200.1 205.9,199.1 203.2,195 198.3,195.8 	"/>
	<polygon class="st4" points="194.9,201.3 200,200.3 197.3,196 192.4,196.8 	"/>
	<polygon class="st4" points="192.9,214.1 191.2,211 187.1,212 188.8,215.1 	"/>
	<polygon class="st4" points="213.1,197.6 217.6,196.7 214.8,193.1 210.3,193.8 	"/>
	<polygon class="st4" points="186.8,203 184.1,198.1 180.1,198.8 182.8,203.8 	"/>
	<polygon class="st4" points="209.3,243.7 204.5,244.9 206.6,248.8 211.5,247.6 	"/>
	<polygon class="st4" points="232.1,237.8 225.4,239.6 227.8,243.5 234.8,241.8 	"/>
	<polygon class="st4" points="224.5,239.8 217.3,241.6 219.5,245.6 226.9,243.8 	"/>
	<polygon class="st4" points="240.1,235.8 233.1,237.6 235.8,241.6 243.1,239.8 	"/>
	<polygon class="st4" points="247.1,234 241.1,235.6 244,239.5 250.2,238 	"/>
	<polygon class="st4" points="206.6,238.6 201.9,239.9 204.1,244.1 208.9,242.8 	"/>
	<polygon class="st4" points="220.8,233.8 218.4,230 211.8,231.8 214,235.7 	"/>
	<polygon class="st4" points="231.6,237 228.6,232.6 222.2,234.4 224.9,238.8 	"/>
	<polygon class="st4" points="213.1,235.9 210.9,232 204.8,233.7 207,237.6 	"/>
	<polygon class="st4" points="201.5,239.1 206.1,237.8 203.9,233.9 199.4,235.1 	"/>
	<polygon class="st4" points="207.7,226.2 205.3,221.8 199.2,223.5 201.6,227.8 	"/>
	<polygon class="st4" points="239.6,235 236.3,230.5 229.5,232.4 232.5,236.8 	"/>
	<polygon class="st4" points="210.4,231.2 208.2,227.1 202,228.6 204.4,232.8 	"/>
	<polygon class="st4" points="226.6,215.9 230,220.5 235.4,219.2 231.7,214.5 	"/>
	<polygon class="st4" points="220,206.9 224.7,205.7 222.6,203 217.9,204.1 	"/>
	<polygon class="st4" points="215.7,201.1 217.3,203.4 222,202.2 220.3,200.1 	"/>
	<polygon class="st4" points="246.5,233.2 242.9,228.7 237.2,230.3 240.5,234.8 	"/>
	<polygon class="st4" points="220.6,207.7 222.9,210.9 227.8,209.6 225.3,206.4 	"/>
	<polygon class="st4" points="233.9,225.8 236.6,229.5 242.3,227.9 239.4,224.3 	"/>
	<polygon class="st4" points="215.1,200.3 219.7,199.3 218.3,197.5 213.7,198.4 	"/>
	<polygon class="st4" points="226,215.1 231.1,213.8 228.4,210.4 223.5,211.7 	"/>
	<path class="st2" d="M266.6,196.6v8.2c-0.8,0.8-1.7,1.5-2.7,2.1c-1.5,0.9-13.9,3-13.9,3l15.8,17.3c0,0,14.5-1.6,18.5-2.7
		c4.2-1.2,3.3-16.7,3.3-16.7L266.6,196.6z"/>
	<path class="st3" d="M266.6,196.6v8.2c0,0-0.2,0.2-0.6,0.5l18.4,19.1c3.9-1.8,3.1-16.6,3.1-16.6L266.6,196.6z"/>
	<polygon class="st2" points="238.7,92 238.7,178.8 304.8,230.9 304.8,96.9 	"/>
	<polygon class="st5" points="243.3,96.6 243.3,169.6 298.8,203.9 298.8,101.4 	"/>
	<rect x="304.8" y="96.9" class="st3" width="6.7" height="134"/>
	<polygon class="st2" points="246.9,101.1 247.2,166.3 293.6,192.7 293.6,112 261.8,107.2 259.6,102.6 	"/>
	<polygon class="st5" points="249.9,109 249.9,164.5 290.9,186.3 290.9,116.3 	"/>
	<ellipse transform="matrix(0.948 -0.3183 0.3183 0.948 -33.3581 93.3717)" class="st4" cx="269" cy="148.8" rx="11" ry="15.2"/>
	<path class="st6" d="M270.2,149.7l3.9-4.3c0.5-0.8,0.5-1.8-0.1-2.6c-0.6-0.8-1.5-1-2-0.4l-3.7,4.1l-3.8-6c-0.5-0.9-1.5-1.1-2-0.6
		c-0.6,0.7-0.6,1.8-0.1,2.6l3.9,6.2l-4,4.3c-0.5,0.8-0.5,1.8,0.1,2.6c0.2,0.4,0.6,0.6,1,0.7c0.4,0.1,0.8,0,1-0.3l3.8-4.1l3.7,6
		c0.2,0.4,0.6,0.7,1.1,0.8c0.4,0.1,0.7,0,1-0.2c0.6-0.7,0.6-1.8,0.1-2.5L270.2,149.7z"/>
	<line class="st7" x1="257.2" y1="127.8" x2="280.1" y2="134.6"/>
	<line class="st7" x1="256.3" y1="121.4" x2="286" y2="129.7"/>
	<path class="st2" d="M276.8,264.3c0,0-14.5,1.3-19.9,5.6c-5.4,4.3-1.3,6.4,3.8,7.8c5.1,1.3,27.9-0.8,30.9-3.8
		S291.5,263.8,276.8,264.3z"/>
	<path class="st3" d="M291.5,274c0.6-0.6,0.9-1.3,1-2.1c-6.5-0.3-15,1.6-22.7,4c-2.6,0.8-5.3,1.5-7.9,2.1
		C268.6,278.8,288.8,276.7,291.5,274z"/>
	<line class="st8" x1="225.4" y1="105.2" x2="236" y2="110.7"/>
	<line class="st8" x1="219.3" y1="102" x2="222.5" y2="103.6"/>
	<line class="st8" x1="227.7" y1="132.9" x2="231.3" y2="133.3"/>
	<line class="st8" x1="214" y1="131.3" x2="223.7" y2="132.4"/>
	<line class="st8" x1="230" y1="158.7" x2="218" y2="162"/>
</g>
<g id="freepik--Clock--inject-4">
	<path class="st4" d="M214.5,12c-15.9,0-28.7,12.8-28.7,28.7c0,15.9,12.8,28.7,28.7,28.7c15.9,0,28.7-12.8,28.7-28.7
		S230.4,12,214.5,12L214.5,12z M214.5,63.8c-12.7,0-23.1-10.3-23-23.1s10.3-23.1,23.1-23c12.7,0,23,10.3,23,23.1
		C237.6,53.4,227.3,63.8,214.5,63.8C214.6,63.8,214.5,63.8,214.5,63.8L214.5,63.8z"/>
	<path class="st4" d="M216.6,40.7c0,1.1-0.9,2.1-2,2.1c-1.1,0-2.1-0.9-2.1-2c0-1.1,0.9-2.1,2-2.1c0,0,0,0,0,0
		C215.6,38.7,216.5,39.6,216.6,40.7z"/>
	<polyline class="st8" points="207.6,51.1 214.5,40.7 226.1,50.3 	"/>
</g>
<g id="freepik--file-cabinet--inject-4">
	<polyline class="st0" points="62.2,62.7 58.8,53.3 60.6,55.4 60.6,52.1 64.5,58.1 61.1,36.7 65.7,48.5 66.1,38.1 66.8,41.6 
		67.7,29.8 69.3,47.8 71.6,41.6 71.2,49.6 77.4,31.2 74.4,54.2 78.8,51 76.2,55.1 79.5,52.8 75.8,63.4 62.4,63.6 	"/>
	<polygon class="st9" points="77,86 62.6,86 58.7,61 80.8,61 	"/>
	<rect x="43.8" y="85.8" class="st10" width="72.6" height="193.1"/>
	<rect x="48" y="92.1" class="st8" width="63.4" height="46.5"/>
	<rect x="67" y="111.2" class="st4" width="25.4" height="8.5"/>
	<rect x="48" y="146.4" class="st8" width="63.4" height="46.5"/>
	<rect x="67" y="165.4" class="st4" width="25.4" height="8.5"/>
	<rect x="48" y="200.7" class="st8" width="63.4" height="46.5"/>
	<rect x="67" y="219.7" class="st4" width="25.4" height="8.5"/>
</g>
<g id="freepik--Character--inject-4">
	<g>
		<defs>
			<rect id="SVGID_1_" y="52" width="230" height="228"/>
		</defs>
		<clipPath id="SVGID_2_">
			<use xlink:href="#SVGID_1_"  style="overflow:visible;"/>
		</clipPath>
		<g class="st11">
			<path class="st3" d="M124.1,267.9c0,0,36.4-16.1,55.9-17.3l14.3,31.5H86.6L124.1,267.9z"/>
			<path class="st6" d="M168.4,77.9c0,0,25.6,30.4,31,36c5.4,5.6,5.6,9.6,3.9,12.1s-14.8,7.1-28.3,15.8s-51.8,31-52.2,31.8
				s-4.1-27-4.1-27l64.1-26.4l-0.2-1.9l-20.8-38.5L168.4,77.9z"/>
			<g>
				<defs>
					<path id="SVGID_3_" d="M168.4,77.9c0,0,25.6,30.4,31,36c5.4,5.6,5.6,9.6,3.9,12.1s-14.8,7.1-28.3,15.8s-51.8,31-52.2,31.8
						s-4.1-27-4.1-27l64.1-26.4l-0.2-1.9l-20.8-38.5L168.4,77.9z"/>
				</defs>
				<clipPath id="SVGID_4_">
					<use xlink:href="#SVGID_3_"  style="overflow:visible;"/>
				</clipPath>
				<g class="st12">
					<path class="st0" d="M193.1,122.8l-29.7-43.4l-1.4,0.4l20.8,38.5l0.2,1.9l-64.1,26.4c0,0,0.1,0.5,0.2,1.3l4.2,9.6L193.1,122.8z
						"/>
					<path class="st13" d="M193.1,122.8l-29.7-43.4l-1.4,0.4l20.8,38.5l0.2,1.9l-64.1,26.4c0,0,0.1,0.5,0.2,1.3l4.2,9.6L193.1,122.8
						z"/>
				</g>
			</g>
			<path class="st7" d="M168.4,77.9c0,0,25.6,30.4,31,36c5.4,5.6,5.6,9.6,3.9,12.1s-14.8,7.1-28.3,15.8s-51.8,31-52.2,31.8
				s-4.1-27-4.1-27l64.1-26.4l-0.2-1.9l-20.8-38.5L168.4,77.9z"/>
			<path class="st2" d="M148,64.6c0,0-3.1-2.7-4.6,0s-1.7,7.1-0.8,7.5s4.8-0.2,5.4-1.4S148,64.6,148,64.6z"/>
			<path class="st2" d="M153.4,63.3c0,0-3.3-3.5-5.4-2.1s-1.5,8.7-0.8,9.2s5.4-1,6-1.9S153.4,63.3,153.4,63.3z"/>
			<path class="st2" d="M160.7,63.4c0,0-2.9-4-5.6-4s-4.6,9.6-3.7,10.4s7.3-0.2,7.7-0.8C159.8,67.2,160.3,65.4,160.7,63.4z"/>
			<path class="st2" d="M166.3,70c0-1.1-0.6-11.2-4-10.6s-7.1,8.7-6.9,10S166.3,70,166.3,70z"/>
			<path class="st2" d="M182.8,120.3c0,0,9.8,3.7,13.5,3.5"/>
			<path class="st6" d="M102.1,282.4c10.5-1.8,23.9-9,27.9-18c-3-15.7-6.8-37.8-6.8-51.3c0-22.7,6-35.6,3.3-51s-8.5-25.4-14.6-29.5
				c0,0-9.4,2.5-19.1,11.6s-18.1,24.6-21.4,39.4s-7.7,60.5-7.7,72.4s-0.9,26.8-0.9,26.8c11.5,0,23.1,0,34.6,0
				C98.9,282.8,100.5,282.7,102.1,282.4z"/>
			<g>
				<defs>
					<path id="SVGID_5_" d="M102.1,282.4c10.5-1.8,23.9-9,27.9-18c-3-15.7-6.8-37.8-6.8-51.3c0-22.7,6-35.6,3.3-51
						s-8.5-25.4-14.6-29.5c0,0-9.4,2.5-19.1,11.6s-18.1,24.6-21.4,39.4s-7.7,60.5-7.7,72.4s-0.9,26.8-0.9,26.8c11.5,0,23.1,0,34.6,0
						C98.9,282.8,100.5,282.7,102.1,282.4z"/>
				</defs>
				<clipPath id="SVGID_6_">
					<use xlink:href="#SVGID_5_"  style="overflow:visible;"/>
				</clipPath>
				<g class="st14">
					<path class="st0" d="M129.9,264.4c-5.9,5-32.2,14.7-36.1,15.6s-1.7-7.3,4.3-15.4s-7.3,3-9.4,3.9s0.9-15.8,0.9-24
						s7.7-77.5,7.7-77.5l14.6-26.6l5-3c-1.4-1.9-3.1-3.5-5-4.8c0,0-9.4,2.5-19.1,11.6s-18.1,24.7-21.4,39.5s-7.7,60.5-7.7,72.4
						s-0.9,26.8-0.9,26.8c11.5,0,23.1,0,34.6,0c1.6,0,3.2-0.1,4.7-0.4C112.6,280.6,125.9,273.4,129.9,264.4z"/>
					<path class="st13" d="M129.9,264.4c-5.9,5-32.2,14.7-36.1,15.6s-1.7-7.3,4.3-15.4s-7.3,3-9.4,3.9s0.9-15.8,0.9-24
						s7.7-77.5,7.7-77.5l14.6-26.6l5-3c-1.4-1.9-3.1-3.5-5-4.8c0,0-9.4,2.5-19.1,11.6s-18.1,24.7-21.4,39.5s-7.7,60.5-7.7,72.4
						s-0.9,26.8-0.9,26.8c11.5,0,23.1,0,34.6,0c1.6,0,3.2-0.1,4.7-0.4C112.6,280.6,125.9,273.4,129.9,264.4z"/>
				</g>
			</g>
			<path class="st7" d="M102.1,282.4c10.5-1.8,23.9-9,27.9-18c-3-15.7-6.8-37.8-6.8-51.3c0-22.7,6-35.6,3.3-51s-8.5-25.4-14.6-29.5
				c0,0-9.4,2.5-19.1,11.6s-18.1,24.6-21.4,39.4s-7.7,60.5-7.7,72.4s-0.9,26.8-0.9,26.8c11.5,0,23.1,0,34.6,0
				C98.9,282.8,100.5,282.7,102.1,282.4z"/>
			<path class="st3" d="M111.2,136.2l16.5,30.1l0.9,16.5c0,0,4.6-11.8,2.6-19.5S111.2,136.2,111.2,136.2z"/>
			<polygon class="st3" points="128.7,182.8 124,252.5 129.2,266.9 132.8,238.2 129.7,180.8 			"/>
			<path class="st6" d="M124.1,107.9c0,0,0.6,7.5,1.2,11.2s-8.5,13.9-8.5,13.9l13.1,19.8l14.8-11.6c0,0,21-1.5,22.9-3.3
				s1.9-20.8,1.9-20.8l5-2.9c0,0-4.6-20-5.8-24.5l-1.2-4.4c0,0,6.7-2.3,5.2-9s-11.4-10-21.2-8.5s-12.3,5.2-12.3,5.2
				s-13.9-0.2-21.8,6.4s-3.1,16.9-0.6,20.6C119.1,102.9,121.5,105.6,124.1,107.9z"/>
			<g>
				<defs>
					<path id="SVGID_7_" d="M124.1,107.9c0,0,0.6,7.5,1.2,11.2s-8.5,13.9-8.5,13.9l13.1,19.8l14.8-11.6c0,0,21-1.5,22.9-3.3
						s1.9-20.8,1.9-20.8l5-2.9c0,0-4.6-20-5.8-24.5l-1.2-4.4c0,0,6.7-2.3,5.2-9s-11.4-10-21.2-8.5s-12.3,5.2-12.3,5.2
						s-13.9-0.2-21.8,6.4s-3.1,16.9-0.6,20.6C119.1,102.9,121.5,105.6,124.1,107.9z"/>
				</defs>
				<clipPath id="SVGID_8_">
					<use xlink:href="#SVGID_7_"  style="overflow:visible;"/>
				</clipPath>
				<g class="st15">
					<path class="st0" d="M147.3,134.8c-3.9-4.7,0-22.7,3-31.7s-4.3-12.8-4.3-12.8l21.9-3.8l-0.3-1.1c1.5-0.6,2.8-1.5,3.8-2.7
						l1.2-6.9c-2-6.3-11.5-9.4-21-7.9c-9.8,1.5-12.3,5.2-12.3,5.2s-13.9-0.2-21.8,6.4s-3.1,16.9-0.6,20.6c2.1,2.8,4.5,5.5,7.1,7.9
						c0,0,0.6,7.5,1.2,11.2s-8.4,13.9-8.4,13.9l13.1,19.8l14.8-11.6c0,0,16-1.2,21.4-2.6l1.6-0.6C167.6,138,151.2,139.5,147.3,134.8
						z"/>
					<path class="st13" d="M147.3,134.8c-3.9-4.7,0-22.7,3-31.7s-4.3-12.8-4.3-12.8l21.9-3.8l-0.3-1.1c1.5-0.6,2.8-1.5,3.8-2.7
						l1.2-6.9c-2-6.3-11.5-9.4-21-7.9c-9.8,1.5-12.3,5.2-12.3,5.2s-13.9-0.2-21.8,6.4s-3.1,16.9-0.6,20.6c2.1,2.8,4.5,5.5,7.1,7.9
						c0,0,0.6,7.5,1.2,11.2s-8.4,13.9-8.4,13.9l13.1,19.8l14.8-11.6c0,0,16-1.2,21.4-2.6l1.6-0.6C167.6,138,151.2,139.5,147.3,134.8
						z"/>
					<path class="st4" d="M158.6,99.1c0,0,0-0.3,0-0.8c0-1.5,0.2-4.7,2.7-5.6c3.3-1.1,6,1.9,6,1.9l0.2,3.1c-1-1.2-2.5-1.8-4-1.5
						C161.6,96.6,159.9,97.6,158.6,99.1z"/>
					<path class="st4" d="M164.2,105.2c0,1.6-0.4,2.9-1,2.9s-1-1.3-1-2.9s0.4-2.9,1-2.9S164.2,103.6,164.2,105.2z"/>
					<path class="st4" d="M158.1,125.4c-1.1,1.1-2.5,1.5-3.2,0.8s-0.4-2.1,0.7-3.2s2.5-1.5,3.2-0.8S159.2,124.3,158.1,125.4z"/>
				</g>
			</g>
			<path class="st7" d="M124.1,107.9c0,0,0.6,7.5,1.2,11.2s-8.5,13.9-8.5,13.9l13.1,19.8l14.8-11.6c0,0,21-1.5,22.9-3.3
				s1.9-20.8,1.9-20.8l5-2.9c0,0-4.6-20-5.8-24.5l-1.2-4.4c0,0,6.7-2.3,5.2-9s-11.4-10-21.2-8.5s-12.3,5.2-12.3,5.2
				s-13.9-0.2-21.8,6.4s-3.1,16.9-0.6,20.6C119.1,102.9,121.5,105.6,124.1,107.9z"/>
			<path class="st3" d="M142.6,89.1c3.5-2.3,25-3.6,25-3.6s6.7-2.3,5.2-9s-11.4-10-21.2-8.5s-12.3,5.2-12.3,5.2s-13.9-0.2-21.8,6.4
				s-3.1,16.9-0.6,20.6c2.1,2.8,4.5,5.5,7.1,7.9c0,0,0.3,4.1,0.7,7.8l6,1.7l6.6-3.5l6.6-1.5c0,0-4.8-3.7-2.1-7.1s7.7-4.6,7.9-7.3
				S139.1,91.4,142.6,89.1z"/>
			<path class="st16" d="M163.6,77.9c0,0-2.3-4.1,1.9-3.4s4.1,7.9,0.8,9.4s-21.8-1.9-32,1.1s-17.3,11.3-17.3,11.3"/>
			<path class="st16" d="M122.6,102.7c0,0,7.9-6.8,14.3-7.9s9.8-1.1,2.6,3s-2.3,3.4,2.3,1.9"/>
			<path class="st0" d="M139.1,117.6c0,0-1.1-12.1-7.1-12.5s-5.8,8.3-4,14.2s6,7.9,9.4,4.8"/>
			<g>
				<defs>
					<path id="SVGID_9_" d="M139.1,117.6c0,0-1.1-12.1-7.1-12.5s-5.8,8.3-4,14.2s6,7.9,9.4,4.8"/>
				</defs>
				<clipPath id="SVGID_10_">
					<use xlink:href="#SVGID_9_"  style="overflow:visible;"/>
				</clipPath>
				<g class="st17">
					<path class="st18" d="M139.1,117.6c0,0-1.1-12.1-7.1-12.5s-5.8,8.3-4,14.2s6,7.9,9.4,4.8"/>
				</g>
			</g>
			<path class="st7" d="M139.1,117.6c0,0-1.1-12.1-7.1-12.5s-5.8,8.3-4,14.2s6,7.9,9.4,4.8"/>
			<path class="st6" d="M117.3,125.6l19.3,29.3l-8.9,11.4c-4-7.7-8.4-15.2-13.3-22.3c-6.6-9.2-7.3-10.8-7.3-10.8L117.3,125.6z"/>
			<g>
				<defs>
					<path id="SVGID_11_" d="M117.3,125.6l19.3,29.3l-8.9,11.4c-4-7.7-8.4-15.2-13.3-22.3c-6.6-9.2-7.3-10.8-7.3-10.8L117.3,125.6z"
						/>
				</defs>
				<clipPath id="SVGID_12_">
					<use xlink:href="#SVGID_11_"  style="overflow:visible;"/>
				</clipPath>
				<g class="st19">
					<path class="st0" d="M117.3,125.6l-10.2,7.5c0,0,0.6,1.1,4.8,7.2l10.8-6.5L117.3,125.6z"/>
					<path class="st13" d="M117.3,125.6l-10.2,7.5c0,0,0.6,1.1,4.8,7.2l10.8-6.5L117.3,125.6z"/>
				</g>
			</g>
			<path class="st7" d="M117.3,125.6l19.3,29.3l-8.9,11.4c-4-7.7-8.4-15.2-13.3-22.3c-6.6-9.2-7.3-10.8-7.3-10.8L117.3,125.6z"/>
			<path class="st2" d="M166.9,198.4c0,0,3.1-6.4,3.7-10.4s0.8-6.4,3.1-8.3s9.8-9.6,11-12.5s1.9-0.2,2.5,2.1s0.4,4.4-1.5,5.8
				c-1.4,1-2.6,2.2-3.7,3.5l1.7,1.4c0,0,24.1-9,26.6-10s4.8-0.2,5,1.7s-0.6,2.1-1.7,2.7s-13.9,5-15.6,5.8l-1.7,0.8l1.4,1.4
				c0,0,6.9-0.2,10.4-0.4s8.7-0.8,9.4,0.4c0.7,1.1,0.5,2.5-0.6,3.3c-0.8,0.8-2,1.2-3.1,1c-1.7,0-16.6,1.1-16.6,1.1l0.4,2.1
				c0,0,15.8,2.5,16.4,3.3s0.6,1.2,0,2.3s-1,1.2-2.5,1.2s-14-1.9-14-1.9s6.2,3.5,6.9,4s3.5,1,2.7,2.3s-1.1,1.7-2.3,1.5
				s-9.4-3.9-9.4-3.9s-8.3,1.1-11,1.4c-2,0.1-4,0-6-0.2l-7.7,5L166.9,198.4z"/>
			<path class="st6" d="M112.2,189.8c0,0-5.6-23.3-7.9-28.5s-15.4-10-21.8,1.4s-0.6,24.3,1.7,33.5s16.9,51,19.1,56.2s6,4,8.1,3.5
				s60.6-47.8,60.6-47.8l-4.6-10.4L122,221L112.2,189.8z"/>
			<g>
				<defs>
					<path id="SVGID_13_" d="M112.2,189.8c0,0-5.6-23.3-7.9-28.5s-15.4-10-21.8,1.4s-0.6,24.3,1.7,33.5s16.9,51,19.1,56.2
						s6,4,8.1,3.5s60.6-47.8,60.6-47.8l-4.6-10.4L122,221L112.2,189.8z"/>
				</defs>
				<clipPath id="SVGID_14_">
					<use xlink:href="#SVGID_13_"  style="overflow:visible;"/>
				</clipPath>
				<g class="st20">
					<path class="st0" d="M110.5,241c1.5-4.5,3.2-8.9,5.1-13.3c2.1-4.3-10.3,9.9-12.8,2.1S84,183.6,87,170.8
						c1.3-6,4.8-11.2,9.8-14.7c-4.8-1.1-10.6,0.1-14.2,6.6c-6.4,11.4-0.6,24.3,1.7,33.5s16.9,51,19.1,56.2s6,4,8.1,3.5
						c1.5-0.4,33-25.5,50-39.2L110.5,241z"/>
					<path class="st13" d="M110.5,241c1.5-4.5,3.2-8.9,5.1-13.3c2.1-4.3-10.3,9.9-12.8,2.1S84,183.6,87,170.8
						c1.3-6,4.8-11.2,9.8-14.7c-4.8-1.1-10.6,0.1-14.2,6.6c-6.4,11.4-0.6,24.3,1.7,33.5s16.9,51,19.1,56.2s6,4,8.1,3.5
						c1.5-0.4,33-25.5,50-39.2L110.5,241z"/>
				</g>
			</g>
			<path class="st7" d="M112.2,189.8c0,0-5.6-23.3-7.9-28.5s-15.4-10-21.8,1.4s-0.6,24.3,1.7,33.5s16.9,51,19.1,56.2s6,4,8.1,3.5
				s60.6-47.8,60.6-47.8l-4.6-10.4L122,221L112.2,189.8z"/>
			<line class="st7" x1="160.7" y1="201.5" x2="165.9" y2="212.1"/>
			<path class="st2" d="M38.6,148.4L12,166.8c0,0,13.1,13.9,11.8,50.2c-1,27.8,2.7,59.3,8,65.7H60c0,0-9.8-54-9.1-84.9
				C51.5,174.3,44.4,158,38.6,148.4z"/>
			<path class="st3" d="M41.8,148.4l-26.6,18.4c0,0,13.1,13.9,11.8,50.2c-1,27.8,2.7,59.3,8,65.7h28.3c0,0-9.8-54-9.1-84.9
				C54.7,174.3,47.6,158,41.8,148.4z"/>
			<polygon class="st2" points="38.6,148.4 41.8,148.4 15.2,166.8 12,166.8 			"/>
		</g>
	</g>
</g>
</svg>
