<?xml version="1.0" encoding="utf-8"?>
<!-- Generator: Adobe Illustrator 25.2.0, SVG Export Plug-In . SVG Version: 6.00 Build 0)  -->
<svg version="1.1" id="Layer_1" xmlns="http://www.w3.org/2000/svg" xmlns:xlink="http://www.w3.org/1999/xlink" x="0px" y="0px"
	 viewBox="0 0 512 512" style="enable-background:new 0 0 512 512;" xml:space="preserve">
<style type="text/css">
	.st0{fill:#FFFFFF;}
</style>
<path class="st0" d="M96,0C60.7,0,32,28.7,32,64v384c0,35.3,28.7,64,64,64h288c35.3,0,64-28.7,64-64V64c0-35.3-28.7-64-64-64H96z
	 M208,288h64c44.2,0,80,35.8,80,80c0,8.8-7.2,16-16,16H144c-8.8,0-16-7.2-16-16C128,323.8,163.8,288,208,288z M176,192
	c0-35.3,28.7-64,64-64s64,28.7,64,64s-28.7,64-64,64S176,227.3,176,192z M512,80c0-8.8-7.2-16-16-16s-16,7.2-16,16v64
	c0,8.8,7.2,16,16,16s16-7.2,16-16V80z M496,192c-8.8,0-16,7.2-16,16v64c0,8.8,7.2,16,16,16s16-7.2,16-16v-64
	C512,199.2,504.8,192,496,192z M512,336c0-8.8-7.2-16-16-16s-16,7.2-16,16v64c0,8.8,7.2,16,16,16s16-7.2,16-16V336z"/>
</svg>
