<?xml version="1.0" encoding="utf-8"?>
<!-- Generator: Adobe Illustrator 25.2.0, SVG Export Plug-In . SVG Version: 6.00 Build 0)  -->
<svg version="1.1" id="Layer_1" xmlns="http://www.w3.org/2000/svg" xmlns:xlink="http://www.w3.org/1999/xlink" x="0px" y="0px"
	 viewBox="0 0 576 512" style="enable-background:new 0 0 576 512;" xml:space="preserve">
<style type="text/css">
	.st0{fill:#FFFFFF;}
</style>
<path class="st0" d="M64,32C28.7,32,0,60.7,0,96v320c0,35.3,28.7,64,64,64h448c35.3,0,64-28.7,64-64V96c0-35.3-28.7-64-64-64H64z
	 M144,288h64c44.2,0,80,35.8,80,80c0,8.8-7.2,16-16,16H80c-8.8,0-16-7.2-16-16C64,323.8,99.8,288,144,288z M112,192
	c0-35.3,28.7-64,64-64s64,28.7,64,64s-28.7,64-64,64S112,227.3,112,192z M368,160h128c8.8,0,16,7.2,16,16s-7.2,16-16,16H368
	c-8.8,0-16-7.2-16-16S359.2,160,368,160z M368,224h128c8.8,0,16,7.2,16,16s-7.2,16-16,16H368c-8.8,0-16-7.2-16-16S359.2,224,368,224
	z M368,288h128c8.8,0,16,7.2,16,16s-7.2,16-16,16H368c-8.8,0-16-7.2-16-16S359.2,288,368,288z"/>
</svg>
