<?xml version="1.0" encoding="utf-8"?>
<!-- Generator: Adobe Illustrator 25.2.0, SVG Export Plug-In . SVG Version: 6.00 Build 0)  -->
<svg version="1.1" id="Layer_1" xmlns="http://www.w3.org/2000/svg" xmlns:xlink="http://www.w3.org/1999/xlink" x="0px" y="0px"
	 viewBox="0 0 576 512" style="enable-background:new 0 0 576 512;" xml:space="preserve">
<path d="M160,32c9,0,17.5,3.8,23.6,10.4l88,96c11.9,13,11.1,33.3-2,45.2s-33.3,11.1-45.2-2L192,146.3V448c0,17.7-14.3,32-32,32
	s-32-14.3-32-32V146.3l-32.4,35.3c-11.9,13-32.2,13.9-45.2,2s-13.9-32.2-2-45.2l88-96C142.5,35.8,151,32,160,32z M418.3,363.1
	c-16,7.6-22.8,26.7-15.2,42.7c7.6,16,26.7,22.8,42.7,15.2l0,0c16-7.6,22.8-26.7,15.2-42.6C453.4,362.3,434.3,355.5,418.3,363.1
	L418.3,363.1z M459,308.2c35.4,11.4,61,44.6,61,83.8c0,48.6-39.4,88-88,88s-88-39.4-88-88c0-23.5,7.5-46.3,21.5-65.2l48.8-65.8
	c10.5-14.2,30.6-17.2,44.8-6.7c14.2,10.5,17.2,30.6,6.7,44.8L459,308.2L459,308.2z M526,123c0,50.3-40.7,91-91,91s-91-40.7-91-91
	s40.7-91,91-91S526,72.7,526,123z M421.3,97.1c-16,7.6-22.8,26.7-15.2,42.7c7.6,16,26.7,22.8,42.7,15.2l0,0
	c16-7.6,22.8-26.7,15.2-42.6C456.4,96.4,437.3,89.5,421.3,97.1L421.3,97.1z"/>
</svg>
