<?xml version="1.0" encoding="utf-8"?>
<!-- Generator: Adobe Illustrator 25.2.0, SVG Export Plug-In . SVG Version: 6.00 Build 0)  -->
<svg version="1.1" id="Layer_1" xmlns="http://www.w3.org/2000/svg" xmlns:xlink="http://www.w3.org/1999/xlink" x="0px" y="0px"
	 viewBox="0 0 512 512" style="enable-background:new 0 0 512 512;" xml:space="preserve">
<style type="text/css">
	.st0{fill:#FFFFFF;}
</style>
<path class="st0" d="M216,64c-13.3,0-24,10.7-24,24s10.7,24,24,24h16v33.3C119.6,157.2,32,252.4,32,368h448
	c0-115.6-87.6-210.8-200-222.7V112h16c13.3,0,24-10.7,24-24s-10.7-24-24-24h-40H216z M24,400c-13.3,0-24,10.7-24,24s10.7,24,24,24
	h464c13.3,0,24-10.7,24-24s-10.7-24-24-24H24z"/>
</svg>
