<?xml version="1.0" encoding="utf-8"?>
<!-- Generator: Adobe Illustrator 25.2.0, SVG Export Plug-In . SVG Version: 6.00 Build 0)  -->
<svg version="1.1" id="Layer_1" xmlns="http://www.w3.org/2000/svg" xmlns:xlink="http://www.w3.org/1999/xlink" x="0px" y="0px"
	 viewBox="0 0 384 512" style="enable-background:new 0 0 384 512;" xml:space="preserve">
<style type="text/css">
	.st0{fill:#FFFFFF;}
</style>
<path class="st0" d="M192,0c-41.8,0-77.4,26.7-90.5,64H64C28.7,64,0,92.7,0,128v320c0,35.3,28.7,64,64,64h256c35.3,0,64-28.7,64-64
	V128c0-35.3-28.7-64-64-64h-37.5C269.4,26.7,233.8,0,192,0z M192,64c17.7,0,32,14.3,32,32s-14.3,32-32,32s-32-14.3-32-32
	S174.3,64,192,64z M112,192h160c8.8,0,16,7.2,16,16s-7.2,16-16,16H112c-8.8,0-16-7.2-16-16S103.2,192,112,192z"/>
</svg>
