<?xml version="1.0" encoding="utf-8"?>
<!-- Generator: Adobe Illustrator 25.2.0, SVG Export Plug-In . SVG Version: 6.00 Build 0)  -->
<svg version="1.1" id="Layer_1" xmlns="http://www.w3.org/2000/svg" xmlns:xlink="http://www.w3.org/1999/xlink" x="0px" y="0px"
	 viewBox="0 0 448 512" style="enable-background:new 0 0 448 512;" xml:space="preserve">
<style type="text/css">
	.st0{fill:#FFFFFF;}
</style>
<path class="st0" d="M0,64c0-17.7,14.3-32,32-32h384c17.7,0,32,14.3,32,32s-14.3,32-32,32H32C14.3,96,0,81.7,0,64z M192,192
	c0-17.7,14.3-32,32-32h192c17.7,0,32,14.3,32,32s-14.3,32-32,32H224C206.3,224,192,209.7,192,192z M224,288h192
	c17.7,0,32,14.3,32,32s-14.3,32-32,32H224c-17.7,0-32-14.3-32-32S206.3,288,224,288z M0,448c0-17.7,14.3-32,32-32h384
	c17.7,0,32,14.3,32,32s-14.3,32-32,32H32C14.3,480,0,465.7,0,448z M127.8,268.6l-102,79.3C15.3,356.1,0,348.6,0,335.3V176.7
	c0-13.3,15.3-20.8,25.8-12.6l101.9,79.3c8.2,6.4,8.2,18.9,0,25.3L127.8,268.6z"/>
</svg>
