<?xml version="1.0" encoding="utf-8"?>
<!-- Generator: Adobe Illustrator 25.2.0, SVG Export Plug-In . SVG Version: 6.00 Build 0)  -->
<svg version="1.1" id="Layer_1" xmlns="http://www.w3.org/2000/svg" xmlns:xlink="http://www.w3.org/1999/xlink" x="0px" y="0px"
	 viewBox="0 0 576 512" style="enable-background:new 0 0 576 512;" xml:space="preserve">
<style type="text/css">
	.st0{fill:#FFFFFF;}
</style>
<path class="st0" d="M284,224.8c-18.8,0.1-34,15.5-33.9,34.3s15.5,34,34.3,33.9c18.8-0.1,33.9-15.4,33.9-34.1
	C318.3,240,302.9,224.7,284,224.8z M173.6,224.8c-18.8,0.1-34,15.5-33.9,34.3c0.1,18.8,15.5,34,34.3,33.9
	c18.8-0.1,33.9-15.4,33.9-34.1C207.9,240,192.5,224.7,173.6,224.8L173.6,224.8z M394.5,224.8c-18.8,0.1-34,15.5-33.9,34.3
	s15.5,34,34.3,33.9c18.8-0.1,33.9-15.4,33.9-34.1C428.8,240,413.4,224.7,394.5,224.8C394.5,224.8,394.5,224.8,394.5,224.8
	L394.5,224.8z M548.3,169.5c-15.5-24.2-37.3-45.6-64.7-63.6c-52.9-34.8-122.4-54-195.7-54c-24.2,0-48.3,2.1-72,6.4
	c-14.9-14.3-31.5-26.6-49.5-36.6C99.7-11.7,40.9,0.7,11.1,11.4C3.7,14.1-0.2,22.2,2.4,29.7c0.7,1.9,1.8,3.7,3.2,5.1
	c21,21.7,55.6,64.5,47.1,103.5C19.6,172.2,1.6,213,1.6,255.6c0,43.4,18,84.2,51.1,118.1c8.5,39-26.2,81.8-47.1,103.5
	C0.1,482.9,0.3,492,6,497.4c1.5,1.4,3.2,2.5,5.1,3.1c29.7,10.7,88.5,23.1,155.3-10.2c18-10,34.7-22.3,49.5-36.6
	c23.8,4.3,47.9,6.4,72,6.4c73.3,0,142.8-19.2,195.7-54c27.4-18,49.1-39.4,64.7-63.6c17.3-26.9,26.1-55.9,26.1-86.1
	C574.4,225.4,565.6,196.4,548.3,169.5L548.3,169.5z M285,409.9c-30.2,0.1-60.3-3.8-89.4-11.5l-20.1,19.4
	c-11.2,10.7-23.6,20-37.1,27.6c-16.4,8.2-34.2,13.3-52.5,14.9c1-1.8,1.9-3.6,2.8-5.4c20.2-37.1,25.6-70.5,16.3-100.1
	c-33-26-52.8-59.2-52.8-95.4c0-83.1,104.3-150.5,232.8-150.5s232.9,67.4,232.9,150.5C517.9,342.5,413.6,409.9,285,409.9z"/>
</svg>
